HIERARCHY
ROOT SpineBase
{
  OFFSET 0.000000 0.000000 0.000000
  CHANNELS 6 Xposition Yposition Zposition Zrotation Xrotation Yrotation
  JOINT SpineMid
  {
    OFFSET 0.000000 27.661696 0.000000
    CHANNELS 3 Zrotation Xrotation Yrotation
    JOINT SpineShoulder
    {
      OFFSET 0.066193 20.670294 -0.757263
      CHANNELS 3 Zrotation Xrotation Yrotation
      JOINT Neck
      {
        OFFSET -0.004234 6.853688 -0.475947
        CHANNELS 3 Zrotation Xrotation Yrotation
        JOINT Head
        {
          OFFSET 3.572506 12.074361 -0.529976
          CHANNELS 3 Zrotation Xrotation Yrotation
          End Site
          {
            OFFSET 0 0 0
          }
        }
      }
      JOINT ShoulderLeft
      {
        OFFSET -10.645094 -2.423634 -8.937740
        CHANNELS 3 Zrotation Xrotation Yrotation
        JOINT ElbowLeft
        {
          OFFSET -2.425164 -22.680595 -6.795589
          CHANNELS 3 Zrotation Xrotation Yrotation
          JOINT WristLeft
          {
            OFFSET -0.114228 -23.495522 -3.248583
            CHANNELS 3 Zrotation Xrotation Yrotation
            JOINT HandLeft
            {
              OFFSET 1.873318 -3.621341 -0.805896
              CHANNELS 3 Zrotation Xrotation Yrotation
              JOINT HandTipLeft
              {
                OFFSET 1.296967 -5.552385 0.133115
                CHANNELS 3 Zrotation Xrotation Yrotation
                End Site
                {
                  OFFSET 0 0 0
                }
              }
              JOINT ThumbLeft
              {
                OFFSET -0.856253 -1.058510 -2.946421
                CHANNELS 3 Zrotation Xrotation Yrotation
                End Site
                {
                  OFFSET 0 0 0
                }
              }
            }
          }
        }
      }
      JOINT ShoulderRight
      {
        OFFSET 12.609661 -5.202660 4.655421
        CHANNELS 3 Zrotation Xrotation Yrotation
        JOINT ElbowRight
        {
          OFFSET 4.583176 -22.585565 0.179743
          CHANNELS 3 Zrotation Xrotation Yrotation
          JOINT WristRight
          {
            OFFSET 6.429096 -18.445004 -2.960314
            CHANNELS 3 Zrotation Xrotation Yrotation
            JOINT HandRight
            {
              OFFSET 1.036356 -7.429897 -1.696301
              CHANNELS 3 Zrotation Xrotation Yrotation
              JOINT HandTipRight
              {
                OFFSET 1.212272 -5.908612 -2.111237
                CHANNELS 3 Zrotation Xrotation Yrotation
                End Site
                {
                  OFFSET 0 0 0
                }
              }
              JOINT ThumbRight
              {
                OFFSET -0.556418 -1.745977 -3.621919
                CHANNELS 3 Zrotation Xrotation Yrotation
                End Site
                {
                  OFFSET 0 0 0
                }
              }
            }
          }
        }
      }
    }
  }
  JOINT HipLeft
  {
    OFFSET -5.538348 1.197978 -6.312480
    CHANNELS 3 Zrotation Xrotation Yrotation
    JOINT KneeLeft
    {
      OFFSET -6.611034 -30.098427 5.156650
      CHANNELS 3 Zrotation Xrotation Yrotation
      JOINT AnkleLeft
      {
        OFFSET -2.632069 -33.050955 8.875044
        CHANNELS 3 Zrotation Xrotation Yrotation
        JOINT FootLeft
        {
          OFFSET 2.989000 -5.935103 -3.463934
          CHANNELS 3 Zrotation Xrotation Yrotation
          End Site
          {
            OFFSET 0 0 0
          }
        }
      }
    }
  }
  JOINT HipRight
  {
    OFFSET 5.409792 0.119886 -0.202965
    CHANNELS 3 Zrotation Xrotation Yrotation
    JOINT KneeRight
    {
      OFFSET -5.575898 -30.188638 6.944539
      CHANNELS 3 Zrotation Xrotation Yrotation
      JOINT AnkleRight
      {
        OFFSET -6.911195 -32.631213 7.082348
        CHANNELS 3 Zrotation Xrotation Yrotation
        JOINT FootRight
        {
          OFFSET 3.036120 -4.523139 -8.561582
          CHANNELS 3 Zrotation Xrotation Yrotation
          End Site
          {
            OFFSET 0 0 0
          }
        }
      }
    }
  }
}
MOTION
Frames: 11
Frame Time: 0.033333
8.334487 91.398211 371.148303 -0.467591 -24.069258 -10.644254 1.115522 -1.200437 10.462888 -0.143630 -0.542707 -0.059506 24.671590 11.604205 -3.004984 0.000000 0.000000 0.000000 153.855682 29.662504 -158.852543 2.852303 24.112855 23.529452 -18.065723 16.885237 49.221029 8.476314 -12.782605 30.459737 0.000000 0.000000 0.000000 0.000000 0.000000 0.000000 -133.832716 25.232777 119.772527 -121.785537 -35.253261 157.612445 77.725937 0.998718 -51.558255 -43.521095 -40.738463 25.633574 0.000000 0.000000 0.000000 0.000000 0.000000 0.000000 -0.787496 36.089209 7.997758 -8.323722 -10.569804 -0.443944 -3.098251 24.195757 17.087853 0.000000 0.000000 0.000000 5.406869 34.224865 7.396738 -11.797719 -12.080302 -1.381697 -5.615922 -4.670808 9.299830 0.000000 0.000000 0.000000
8.155630 89.118885 371.699210 0.826254 -25.813541 -12.345794 0.939211 -1.137567 12.541481 0.001940 -0.545457 -0.050677 29.991576 8.970017 -3.279418 0.000000 0.000000 0.000000 162.783113 26.308546 -173.274766 9.811711 14.299276 36.213205 -36.110025 21.146523 28.847062 7.460027 6.360119 -37.000428 0.000000 0.000000 0.000000 0.000000 0.000000 0.000000 -140.356192 34.790391 137.762772 -122.756283 -23.740692 173.540436 67.300592 -10.596386 -43.964695 -38.687128 -20.362344 27.904261 0.000000 0.000000 0.000000 0.000000 0.000000 0.000000 -3.914385 36.921117 10.960146 -8.178335 -10.371130 -0.427654 -3.005570 27.596789 18.193331 0.000000 0.000000 0.000000 2.142281 35.886623 10.081064 -11.662683 -12.202155 -1.337109 -8.144605 -17.129036 5.132785 0.000000 0.000000 0.000000
8.140693 85.514297 372.165330 -0.938626 -24.410579 -13.650108 0.776551 -0.846085 13.394813 0.247216 -0.627867 -0.146502 36.181140 2.874774 -1.036173 0.000000 0.000000 0.000000 176.553859 34.487784 170.811608 19.243959 15.940233 42.857276 -34.323277 12.565638 28.318266 9.671159 13.069406 -31.806205 0.000000 0.000000 0.000000 0.000000 0.000000 0.000000 -155.320197 47.223939 170.169748 -125.565302 -3.513112 -160.649417 49.773755 -31.681936 -37.658457 -32.167659 12.709860 27.363676 0.000000 0.000000 0.000000 0.000000 0.000000 0.000000 -2.740763 35.486546 11.766905 -7.636795 -10.673934 -0.256919 -3.159811 30.392114 19.043522 0.000000 0.000000 0.000000 2.275091 33.919017 11.378833 -10.074694 -11.607194 -0.877918 -11.307660 -24.759171 4.319185 0.000000 0.000000 0.000000
8.290131 80.302896 372.378202 0.773883 -21.502982 -13.878511 0.811128 -1.060761 14.060548 -0.032619 -0.388114 -0.037443 32.148749 -1.057906 2.443595 0.000000 0.000000 0.000000 175.648414 40.470155 170.816214 18.154907 14.019093 38.382789 -32.312049 -6.494111 24.475301 14.590777 31.216828 -32.914470 0.000000 0.000000 0.000000 0.000000 0.000000 0.000000 158.462825 45.905045 -116.372815 -157.961147 18.368816 -119.513555 34.830673 -41.352226 -38.359405 -34.711036 15.703311 46.463922 0.000000 0.000000 0.000000 0.000000 0.000000 0.000000 -4.596050 30.876306 13.016765 -6.777832 -9.578917 -0.167468 -0.993760 25.928636 15.289535 0.000000 0.000000 0.000000 -1.439509 28.609788 13.355115 -7.214591 -9.784118 -0.237027 -13.837590 -27.118860 9.583728 0.000000 0.000000 0.000000
8.116117 75.079130 372.640810 1.373359 -18.235835 -13.064740 0.344186 -0.861843 13.391873 -0.135366 -0.320976 -0.008922 24.329881 -0.934160 3.336730 0.000000 0.000000 0.000000 169.878215 44.852387 178.501836 14.754184 3.483427 32.043669 -26.262581 -8.088081 27.850167 12.241141 31.686779 -29.261624 0.000000 0.000000 0.000000 0.000000 0.000000 0.000000 139.598823 40.870336 -85.232990 -169.576188 18.279383 -90.750331 3.030715 -49.316239 -40.041815 -43.737573 11.388789 113.777379 0.000000 0.000000 0.000000 0.000000 0.000000 0.000000 -3.878967 26.608374 12.232851 -6.618662 -8.290118 -0.278817 3.166531 14.793279 7.642885 0.000000 0.000000 0.000000 -2.929511 22.668813 13.245286 -4.407116 -7.143767 0.175652 -13.706175 -23.406064 13.563453 0.000000 0.000000 0.000000
7.976023 70.064309 373.112905 1.094698 -14.382727 -8.820325 -0.231114 -0.625319 9.078953 -0.261405 -0.264550 -0.016082 15.662144 0.487515 3.008662 0.000000 0.000000 0.000000 163.124938 55.010779 -171.302125 13.233982 0.998994 27.871522 -23.363265 -4.075808 29.212705 12.288957 30.157072 -24.788262 0.000000 0.000000 0.000000 0.000000 0.000000 0.000000 125.516744 40.627158 -65.967711 -176.286401 35.780227 -44.908551 -37.798334 -28.803712 -32.482200 -0.481021 57.485972 102.815390 0.000000 0.000000 0.000000 0.000000 0.000000 0.000000 -1.174212 23.462768 7.265475 -6.260935 -8.859697 -0.113161 5.904063 4.260781 1.114691 0.000000 0.000000 0.000000 -2.579928 16.392299 9.017773 -1.396463 -4.249042 0.482071 -11.809598 -14.970452 14.955432 0.000000 0.000000 0.000000
7.543500 66.712236 373.557141 -0.187767 -10.682394 -10.349251 -0.372203 -0.146524 10.380976 -0.128127 -0.365398 -0.059304 7.145059 2.927527 1.933400 0.000000 0.000000 0.000000 141.802773 66.381364 -144.765127 10.730884 4.380551 22.578350 -28.254521 3.090287 26.701662 14.750643 27.230303 -19.743801 0.000000 0.000000 0.000000 0.000000 0.000000 0.000000 112.181030 45.743668 -54.727549 176.765126 54.502784 26.224308 -18.451487 2.865400 -12.017696 35.011889 9.780352 43.615573 0.000000 0.000000 0.000000 0.000000 0.000000 0.000000 0.432270 19.619894 8.646531 -6.323125 -8.962364 -0.137449 8.705829 -8.569473 -6.932522 0.000000 0.000000 0.000000 -2.345259 11.828820 10.276913 0.515320 -2.551614 0.626995 -8.444425 -3.649109 13.680881 0.000000 0.000000 0.000000
6.964778 65.238375 373.923882 -1.811787 -7.805750 -15.842885 -0.029456 0.118680 15.679782 0.082825 -0.591673 -0.096947 -1.329982 7.271798 0.572440 0.000000 0.000000 0.000000 87.919732 70.672954 -85.773428 10.255228 15.141716 15.618032 -30.113431 3.943444 24.023957 10.466896 25.562517 -20.510653 0.000000 0.000000 0.000000 0.000000 0.000000 0.000000 104.516939 55.111029 -53.432423 -150.821707 68.669948 44.131020 -5.323272 4.349938 -24.354643 25.153325 -3.466154 30.915259 0.000000 0.000000 0.000000 0.000000 0.000000 0.000000 1.468226 16.054307 14.412448 -6.728363 -7.374338 -0.446537 7.464020 -17.043804 -10.528484 0.000000 0.000000 0.000000 -1.333484 9.936236 15.415326 0.392787 -2.112499 0.486068 -4.611548 -2.718428 7.316180 0.000000 0.000000 0.000000
6.282468 65.725603 374.238539 -3.441188 -6.607556 -24.518196 0.271874 0.393491 24.212253 0.089898 -0.783920 -0.141978 -7.311592 12.704851 -0.285193 0.000000 0.000000 0.000000 52.374055 60.349024 -45.922291 14.213280 27.084291 8.181543 -29.450377 6.463172 23.326389 4.252473 14.955449 -19.154267 0.000000 0.000000 0.000000 0.000000 0.000000 0.000000 92.774741 73.198795 -56.085594 -71.980734 62.098153 10.821417 -3.684279 4.230858 -32.071110 15.399254 -7.319030 23.177488 0.000000 0.000000 0.000000 0.000000 0.000000 0.000000 1.734854 14.198323 23.474823 -6.816697 -5.174104 -0.713170 9.591220 -26.436916 -16.342609 0.000000 0.000000 0.000000 -0.357784 11.712382 23.886257 0.035898 -3.420432 0.636721 1.164566 3.335138 -1.496656 0.000000 0.000000 0.000000
5.573310 66.706615 375.647182 -3.841326 -8.885539 -35.899432 0.076697 0.719198 35.485849 0.690113 -0.796147 -0.161684 -12.936124 18.724239 0.248344 0.000000 0.000000 0.000000 46.684033 48.107113 -36.992767 9.646029 29.249843 2.272124 -19.782003 12.071515 26.733996 -7.730138 19.203433 -27.288151 0.000000 0.000000 0.000000 0.000000 0.000000 0.000000 56.219088 73.015685 -27.051420 -82.381599 57.050949 27.048099 -1.181071 -1.041565 -29.021255 7.821494 -10.986909 12.636014 0.000000 0.000000 0.000000 0.000000 0.000000 0.000000 -2.155718 16.680802 35.197000 -7.436887 -4.637512 -0.915240 8.635688 -27.886742 -16.001959 0.000000 0.000000 0.000000 -4.875383 19.358880 35.512643 -2.130094 -7.804241 0.790967 3.826975 5.704213 -4.336959 0.000000 0.000000 0.000000
4.852539 68.551084 375.829065 -4.548846 -13.003582 -44.359446 0.418190 0.540647 43.668093 0.105469 -1.036315 -0.211216 -11.916322 25.617821 1.015498 0.000000 0.000000 0.000000 43.015880 40.381042 -31.513553 14.085341 19.745745 2.862244 1.543021 -12.028772 18.420096 -66.303654 45.753354 1.468262 0.000000 0.000000 0.000000 0.000000 0.000000 0.000000 32.835761 62.651616 -9.317183 -104.307213 46.628201 45.654878 1.901074 -6.592629 -25.342532 3.785509 -10.031395 9.355813 0.000000 0.000000 0.000000 0.000000 0.000000 0.000000 -5.348255 19.045949 44.235327 -8.918127 -1.917578 -1.556843 9.589284 -25.246201 -13.335643 0.000000 0.000000 0.000000 -10.102786 25.670916 45.105083 -5.346413 -10.893416 0.266907 2.469113 3.813172 -3.091735 0.000000 0.000000 0.000000
